<svg width="46" height="42" viewBox="0 0 46 42" fill="none" xmlns="http://www.w3.org/2000/svg">
<path d="M44.7164 9.16462C43.1762 4.31199 38.7195 0.799988 33.4582 0.799988C28.921 0.799988 24.9873 3.4125 22.9988 7.24248C21.0133 3.4125 17.0766 0.799988 12.5423 0.799988C7.28104 0.799988 2.82144 4.31199 1.28415 9.16462C1.28415 9.16462 -0.681296 13.8167 2.06285 20.4941C2.06573 20.5027 2.07147 20.5113 2.07435 20.5199C6.76382 32.5283 21.9989 40.8614 23.0017 41.4C24.0045 40.8614 39.2396 32.5254 43.9291 20.5199C43.9319 20.5113 43.9377 20.5027 43.9406 20.4941C46.6847 13.8167 44.7193 9.16462 44.7193 9.16462H44.7164Z" fill="#D9D9D9"/>
</svg>
