<?xml version="1.0" encoding="UTF-8"?>
<svg id="Layer_1" data-name="Layer 1" xmlns="http://www.w3.org/2000/svg" viewBox="0 0 83.95 80">
  <defs>
    <style>
      .cls-1 {
        fill: #ea5866;
      }

      .cls-1, .cls-2, .cls-3, .cls-4, .cls-5, .cls-6, .cls-7 {
        stroke-width: 0px;
      }

      .cls-2 {
        fill: #788db3;
      }

      .cls-3 {
        fill: #f6e1bb;
      }

      .cls-4 {
        fill: #70c3c3;
      }

      .cls-5 {
        fill: #14253c;
      }

      .cls-6 {
        fill: #4cbbc0;
      }

      .cls-7 {
        fill: #fbbf46;
      }
    </style>
  </defs>
  <path class="cls-5" d="m66.05.82H18.5C10.16.82,3.39,7.99,3.39,16.83v46.52c0,8.84,6.76,16.01,15.11,16.01h47.55c8.34,0,15.11-7.17,15.11-16.01V16.83c0-8.84-6.76-16.01-15.11-16.01Z"/>
  <path class="cls-4" d="m15.39,11.56h-4.58c-.95,0-1.72.77-1.72,1.72v22.2h8.01V13.28c0-.95-.77-1.72-1.72-1.72Z"/>
  <path class="cls-1" d="m25.12,8.81h-4.58c-.95,0-1.72.77-1.72,1.72v24.95h8.01V10.53c0-.95-.77-1.72-1.72-1.72Z"/>
  <path class="cls-2" d="m35.07,11.79h-4.58c-.95,0-1.72.77-1.72,1.72v22.2h8.01V13.51c0-.95-.77-1.72-1.72-1.72Z"/>
  <path class="cls-7" d="m45.36,9.04h-5.26c-.95,0-1.72.77-1.72,1.72v24.84h8.7V10.76c0-.95-.77-1.72-1.72-1.72Z"/>
  <path class="cls-6" d="m54.98,9.04h-4.58c-.95,0-1.72.77-1.72,1.72v24.84h8.01V10.76c0-.95-.77-1.72-1.72-1.72Z"/>
  <path class="cls-7" d="m64.82,11.67h-4.58c-.95,0-1.72.77-1.72,1.72v22.2h8.01V13.39c0-.95-.77-1.72-1.72-1.72Z"/>
  <path class="cls-1" d="m72.73,11.67h-3.09c-.95,0-1.72.77-1.72,1.72v22.2h6.52V13.39c0-.95-.77-1.72-1.72-1.72Z"/>
  <path class="cls-7" d="m15.39,47.73h-5.95c-.95,0-1.72.77-1.72,1.72v26.23h9.38v-26.23c0-.95-.77-1.72-1.72-1.72Z"/>
  <path class="cls-2" d="m25.12,50.01h-4.58c-.95,0-1.72.77-1.72,1.72v23.64h8.01v-23.64c0-.95-.77-1.72-1.72-1.72Z"/>
  <path class="cls-1" d="m34.05,48.3h-3.89c-.95,0-1.72.77-1.72,1.72v25.41h7.32v-25.41c0-.95-.77-1.72-1.72-1.72Z"/>
  <path class="cls-1" d="m44.69,45.67h-5.26c-.95,0-1.72.77-1.72,1.72v28.15h8.7v-28.15c0-.95-.77-1.72-1.72-1.72Z"/>
  <path class="cls-6" d="m54.31,50.62h-4.58c-.95,0-1.72.77-1.72,1.72v23.19h8.01v-23.19c0-.95-.77-1.72-1.72-1.72Z"/>
  <path class="cls-7" d="m64.15,47.39h-4.58c-.95,0-1.72.77-1.72,1.72v26.42h8.01v-26.42c0-.95-.77-1.72-1.72-1.72Z"/>
  <path class="cls-1" d="m75.25,49.33h-5.61c-.95,0-1.72.77-1.72,1.72v24.26h9.04v-24.26c0-.95-.77-1.72-1.72-1.72Z"/>
  <rect class="cls-7" x="4.29" y="35.48" width="75.31" height="4.35"/>
  <path class="cls-7" d="m67.64,0H16.31C7.3,0,0,7.3,0,16.31v47.38c0,9.01,7.3,16.31,16.31,16.31h51.33c9.01,0,16.31-7.3,16.31-16.31V16.31c0-9.01-7.3-16.31-16.31-16.31Zm12.02,62.58c0,7.06-5.73,12.79-12.79,12.79H17.25c-7.06,0-12.79-5.73-12.79-12.79V16.74c0-7.06,5.73-12.79,12.79-12.79h49.61c7.06,0,12.79,5.73,12.79,12.79v45.84Z"/>
  <rect class="cls-7" x="29.01" y="30.9" width="7.55" height="2.15" rx=".58" ry=".58"/>
  <rect class="cls-7" x="19.06" y="68.44" width="7.55" height="2.15" rx=".58" ry=".58"/>
  <rect class="cls-7" x="48.6" y="53.62" width="6.91" height="2.15" rx=".58" ry=".58"/>
  <rect class="cls-7" x="9.27" y="15.79" width="7.55" height="2.15" rx=".43" ry=".43"/>
  <rect class="cls-7" x="49.09" y="13.56" width="7.21" height="2.83" rx=".8" ry=".8"/>
  <rect class="cls-6" x="68.76" y="18.45" width="5.15" height="2.46" rx=".56" ry=".56"/>
  <rect class="cls-1" x="59.09" y="14.51" width="7.02" height="2.83" rx="1" ry="1"/>
  <rect class="cls-1" x="8.63" y="51.5" width="7.81" height="2.83" rx="1" ry="1"/>
  <rect class="cls-3" x="50.57" y="19.4" width="4.5" height="1.69" rx=".53" ry=".53"/>
  <rect class="cls-3" x="50.57" y="22.2" width="4.5" height="1.69" rx=".53" ry=".53"/>
  <rect class="cls-3" x="40.58" y="10" width="4.5" height="1.69" rx=".53" ry=".53"/>
  <rect class="cls-3" x="40.58" y="12.81" width="4.5" height="1.69" rx=".53" ry=".53"/>
  <rect class="cls-3" x="40.58" y="15.84" width="4.5" height="1.69" rx=".53" ry=".53"/>
  <rect class="cls-3" x="29.94" y="52.1" width="4.5" height="1.69" rx=".53" ry=".53"/>
  <rect class="cls-3" x="29.94" y="54.91" width="4.5" height="1.69" rx=".53" ry=".53"/>
  <rect class="cls-3" x="29.94" y="57.94" width="4.5" height="1.69" rx=".53" ry=".53"/>
  <rect class="cls-3" x="40.58" y="18.65" width="4.5" height="1.69" rx=".53" ry=".53"/>
  <rect class="cls-3" x="20.31" y="13.51" width="4.94" height="2.8" rx=".92" ry=".92"/>
  <rect class="cls-3" x="69.59" y="54.88" width="6" height="2.8" rx=".92" ry=".92"/>
  <rect class="cls-3" x="30.67" y="16.08" width="3.66" height="5.61" rx="1.06" ry="1.06"/>
  <rect class="cls-3" x="20.5" y="54.98" width="4.82" height="2.54" rx=".47" ry=".47"/>
  <rect class="cls-3" x="50.34" y="57.38" width="3.66" height="2.83" rx=".47" ry=".47"/>
  <rect class="cls-6" x="59.6" y="50.49" width="4.78" height="2.83" rx=".47" ry=".47"/>
  <rect class="cls-3" x="38.87" y="48.45" width="6.58" height="2.83" rx=".47" ry=".47"/>
  <rect class="cls-3" x="51.22" y="13.95" width="3.04" height="2.11" rx=".46" ry=".46"/>
</svg>