<?xml version="1.0" encoding="utf-8"?>
<!-- Generator: Adobe Illustrator 28.0.0, SVG Export Plug-In . SVG Version: 6.00 Build 0)  -->
<svg version="1.1" id="Layer_1" xmlns="http://www.w3.org/2000/svg" xmlns:xlink="http://www.w3.org/1999/xlink" x="0px" y="0px"
	 viewBox="0 0 21 21" style="enable-background:new 0 0 21 21;" xml:space="preserve">
<style type="text/css">
	.st0{fill:#14253C;}
</style>
<path class="st0" d="M20.4,19.2l-7-6.6c1.2-1.3,1.9-3.1,1.9-5c0-4.2-3.4-7.6-7.6-7.6S0,3.4,0,7.6s3.4,7.6,7.6,7.6
	c1.6,0,3-0.5,4.2-1.3l7.2,6.7c0.4,0.4,1.1,0.4,1.4,0C20.8,20.3,20.8,19.6,20.4,19.2z M2,7.6C2,4.5,4.5,2,7.6,2s5.6,2.5,5.6,5.6
	s-2.5,5.6-5.6,5.6S2,10.7,2,7.6z"/>
</svg>
