<svg width="30" height="30" viewBox="0 0 30 30" fill="none" xmlns="http://www.w3.org/2000/svg">
<g clip-path="url(#clip0_32_22)">
<path d="M15 0C6.72 0 0 6.72 0 15C0 23.28 6.72 30 15 30C23.28 30 30 23.28 30 15C30 6.72 23.28 0 15 0ZM21.42 6.91H19.53C17.67 6.91 17.09 8.07 17.09 9.25V12.06H21.25L20.58 16.4H17.09V26.88C16.33 27 15.54 27.06 14.75 27.06C13.96 27.06 13.17 27 12.41 26.88V16.4H8.6V12.06H12.41V8.76C12.41 5 14.65 2.92 18.08 2.92C19.72 2.92 21.44 3.21 21.44 3.21V6.9L21.42 6.91Z" fill="white"/>
</g>
<defs>
<clipPath id="clip0_32_22">
<rect width="30" height="30" fill="white"/>
</clipPath>
</defs>
</svg>
