<svg width="30" height="30" viewBox="0 0 30 30" fill="none" xmlns="http://www.w3.org/2000/svg">
<g clip-path="url(#clip0_32_24)">
<path d="M15 0C6.72 0 0 6.72 0 15C0 23.28 6.72 30 15 30C23.28 30 30 23.28 30 15C30 6.72 23.28 0 15 0ZM24.39 18.89C24.34 19.89 24.19 20.58 23.95 21.18C23.71 21.8 23.39 22.33 22.86 22.85C22.34 23.37 21.81 23.7 21.19 23.94C20.59 24.17 19.9 24.33 18.9 24.38C17.89 24.43 17.57 24.44 15.01 24.44C12.45 24.44 12.12 24.43 11.12 24.38C10.11 24.33 9.43 24.18 8.83 23.94C8.21 23.7 7.68 23.38 7.16 22.85C6.63 22.33 6.31 21.8 6.07 21.18C5.84 20.58 5.68 19.89 5.63 18.89C5.58 17.88 5.57 17.56 5.57 15C5.57 12.44 5.58 12.11 5.63 11.11C5.68 10.1 5.84 9.42 6.07 8.82C6.31 8.2 6.63 7.67 7.16 7.15C7.68 6.62 8.21 6.3 8.83 6.06C9.43 5.83 10.12 5.67 11.12 5.62C12.13 5.57 12.45 5.56 15.01 5.56C17.57 5.56 17.9 5.57 18.9 5.62C19.9 5.67 20.59 5.82 21.19 6.06C21.81 6.3 22.34 6.62 22.86 7.15C23.38 7.67 23.71 8.2 23.95 8.82C24.18 9.42 24.34 10.11 24.39 11.11C24.44 12.12 24.45 12.44 24.45 15C24.45 17.56 24.44 17.89 24.39 18.89Z" fill="white"/>
<path d="M22.36 9.42999C22.19 8.98999 21.98 8.66999 21.65 8.33999C21.32 8.00999 21.01 7.79999 20.56 7.62999C20.23 7.49999 19.73 7.34999 18.81 7.29999C17.81 7.24999 17.52 7.23999 14.99 7.23999C12.46 7.23999 12.17 7.24999 11.17 7.29999C10.25 7.33999 9.75001 7.49999 9.42001 7.62999C8.98001 7.79999 8.66001 8.00999 8.33001 8.33999C8.00001 8.66999 7.79001 8.97999 7.62001 9.42999C7.49001 9.75999 7.34001 10.26 7.29001 11.18C7.24001 12.18 7.23001 12.47 7.23001 15C7.23001 17.53 7.24001 17.82 7.29001 18.82C7.33001 19.74 7.49001 20.24 7.62001 20.57C7.79001 21.01 8.00001 21.33 8.33001 21.66C8.66001 21.99 8.98001 22.2 9.42001 22.37C9.75001 22.5 10.25 22.65 11.17 22.7C12.17 22.75 12.46 22.76 14.99 22.76C17.52 22.76 17.81 22.75 18.81 22.7C19.73 22.66 20.23 22.5 20.56 22.37C21 22.2 21.32 21.99 21.65 21.66C21.98 21.33 22.19 21.02 22.36 20.57C22.49 20.24 22.64 19.74 22.69 18.82C22.74 17.82 22.74 17.53 22.74 15C22.74 12.47 22.74 12.18 22.69 11.18C22.65 10.26 22.49 9.75999 22.36 9.42999ZM15 19.85C12.32 19.85 10.15 17.68 10.15 15C10.15 12.32 12.32 10.15 15 10.15C17.68 10.15 19.85 12.32 19.85 15C19.85 17.68 17.68 19.85 15 19.85ZM20.04 11.09C19.41 11.09 18.91 10.58 18.91 9.95999C18.91 9.33999 19.42 8.82999 20.04 8.82999C20.66 8.82999 21.17 9.33999 21.17 9.95999C21.17 10.58 20.66 11.09 20.04 11.09Z" fill="white"/>
<path d="M15 11.85C13.26 11.85 11.85 13.26 11.85 15C11.85 16.74 13.26 18.15 15 18.15C16.74 18.15 18.15 16.74 18.15 15C18.15 13.26 16.74 11.85 15 11.85Z" fill="white"/>
</g>
<defs>
<clipPath id="clip0_32_24">
<rect width="30" height="30" fill="white"/>
</clipPath>
</defs>
</svg>
