<svg width="30" height="30" viewBox="0 0 30 30" fill="none" xmlns="http://www.w3.org/2000/svg">
<g clip-path="url(#clip0_32_28)">
<path d="M15 0C6.72 0 0 6.72 0 15C0 23.28 6.72 30 15 30C23.28 30 30 23.29 30 15C30 6.71 23.28 0 15 0ZM9.82 23.86C8.75 23.85 7.69 23.86 6.62 23.86C6.45 23.86 6.4 23.82 6.4 23.64C6.4 19.84 6.4 16.04 6.4 12.23C6.4 12.07 6.44 12.02 6.6 12.02C7.68 12.02 8.76 12.02 9.85 12.02C10.06 12.02 10.09 12.1 10.09 12.28C10.09 14.17 10.09 16.07 10.09 17.96C10.09 19.85 10.09 21.72 10.09 23.59C10.09 23.8 10.04 23.86 9.82 23.86ZM8.24 10.39C7.08 10.39 6.11 9.43 6.11 8.27C6.11 7.1 7.07 6.13 8.25 6.13C9.42 6.13 10.38 7.09 10.38 8.25C10.38 9.43 9.42 10.39 8.25 10.39H8.24ZM23.89 23.61C23.89 23.8 23.84 23.85 23.65 23.85C22.58 23.85 21.51 23.85 20.45 23.85C20.26 23.85 20.22 23.79 20.22 23.62C20.22 21.65 20.22 19.68 20.22 17.7C20.22 17.21 20.19 16.71 20.05 16.23C19.79 15.34 19.16 14.89 18.23 14.94C16.96 15.01 16.31 15.63 16.14 16.92C16.1 17.23 16.08 17.53 16.08 17.84C16.08 19.76 16.08 21.67 16.08 23.59C16.08 23.78 16.03 23.84 15.84 23.84C14.76 23.84 13.69 23.84 12.61 23.84C12.44 23.84 12.39 23.79 12.39 23.62C12.39 19.82 12.39 16.03 12.39 12.23C12.39 12.04 12.45 12 12.63 12C13.65 12 14.67 12 15.69 12C15.88 12 15.93 12.06 15.92 12.24C15.91 12.69 15.92 13.15 15.92 13.6C16.17 13.32 16.37 13.04 16.62 12.8C17.4 12.07 18.32 11.7 19.39 11.71C19.98 11.71 20.56 11.76 21.13 11.92C22.43 12.3 23.19 13.19 23.55 14.47C23.82 15.42 23.87 16.4 23.87 17.39C23.87 19.46 23.87 21.53 23.87 23.61H23.89Z" fill="white"/>
</g>
<defs>
<clipPath id="clip0_32_28">
<rect width="30" height="30" fill="white"/>
</clipPath>
</defs>
</svg>
