<svg width="30" height="30" viewBox="0 0 30 30" fill="none" xmlns="http://www.w3.org/2000/svg">
<g clip-path="url(#clip0_32_30)">
<path d="M15 30C23.28 30 30 23.28 30 15C30 6.72 23.28 0 15 0C6.72 0 0 6.72 0 15C0 23.28 6.72 30 15 30ZM7.09 16.02C7.4 15.32 7.83 14.7 8.38 14.17C9.02 13.55 9.75 13.08 10.59 12.78C11.12 12.59 11.66 12.48 12.22 12.43C12.62 12.4 13.03 12.41 13.43 12.46C13.48 12.46 13.52 12.48 13.52 12.54C13.52 12.76 13.52 12.99 13.52 13.21C13.52 13.21 13.55 14.91 13.55 15.68C13.55 15.71 13.55 15.74 13.55 15.76C13.55 15.84 13.51 15.86 13.43 15.84C13.22 15.78 13 15.75 12.78 15.74C12.44 15.72 12.1 15.77 11.79 15.89C10.72 16.28 10.08 17.05 9.94 18.17C9.81 19.28 10.24 20.16 11.17 20.8C11.25 20.85 11.33 20.9 11.4 20.96C11.42 20.98 11.43 20.99 11.45 21.01C11.66 21.1 11.88 21.18 12.11 21.23C12.83 21.37 13.52 21.26 14.14 20.88C14.86 20.43 15.29 19.78 15.44 18.94C15.47 18.78 15.47 18.62 15.47 18.46C15.47 14.14 15.47 9.82 15.47 5.5C15.47 5.3 15.44 5.32 15.64 5.32H18.7C18.8 5.32 18.8 5.32 18.8 5.43C18.8 5.66 18.9 6.2 18.9 6.24C19.33 8.42 21.88 9.76 22.66 9.88C22.88 9.91 23.09 9.94 23.31 9.94C23.4 9.94 23.4 9.94 23.4 10.03C23.4 10.23 23.44 12.32 23.44 13.09C23.44 13.26 23.42 13.27 23.24 13.27C22.68 13.27 22.13 13.2 21.59 13.07C20.66 12.86 19.79 12.48 18.99 11.95C18.95 11.92 18.9 11.86 18.86 11.88C18.8 11.91 18.83 11.98 18.83 12.03C18.83 14.18 18.83 16.33 18.83 18.48C18.83 19.98 18.34 21.33 17.36 22.48C16.31 23.7 14.98 24.41 13.39 24.6C12.16 24.75 10.99 24.53 9.89 23.98C9.71 23.89 9.54 23.79 9.38 23.67C9.33 23.63 9.28 23.58 9.23 23.54C9.11 23.49 9.01 23.4 8.91 23.32C7.92 22.54 7.23 21.55 6.84 20.35C6.71 19.93 6.62 19.5 6.58 19.06C6.55 18.74 6.55 18.43 6.57 18.11C6.62 17.38 6.79 16.68 7.09 16.01V16.02Z" fill="white"/>
</g>
<defs>
<clipPath id="clip0_32_30">
<rect width="30" height="30" fill="white"/>
</clipPath>
</defs>
</svg>
